<?xml version="1.0" encoding="utf-8"?>
<!-- Generator: Adobe Illustrator 25.0.0, SVG Export Plug-In . SVG Version: 6.00 Build 0)  -->
<svg version="1.1" id="Calque_1" xmlns="http://www.w3.org/2000/svg" xmlns:xlink="http://www.w3.org/1999/xlink" x="0px" y="0px"
	 viewBox="0 0 2013.5 1494" style="enable-background:new 0 0 2013.5 1494;" xml:space="preserve">
<style type="text/css">
	.st0{fill:none;stroke:#777777;stroke-width:2;stroke-miterlimit:10;}
	.st1{fill:#777777;}
	.st2{fill:none;stroke:#777777;stroke-miterlimit:10;}
	.st3{fill:none;stroke:#777777;stroke-width:2;stroke-linecap:round;stroke-linejoin:round;stroke-miterlimit:10;}
</style>
<g>
	<g>
		<g>
			<path class="st0" d="M1689,1196.5H325c-8.3,0-15-6.7-15-15v-874c0-8.3,6.7-15,15-15h1364c8.3,0,15,6.7,15,15v874
				C1704,1189.8,1697.3,1196.5,1689,1196.5z"/>
			<rect x="1704" y="717" class="st0" width="11.5" height="55"/>
		</g>
		<g>
			<g>
				<g id="_x33_pdt_3_">
					<g>
						<path class="st1" d="M495,947.7l24.4,42.3l-24.4,42.3h-48.8L421.8,990l24.4-42.3H495 M495.6,946.7h-50l-25,43.3l25,43.3h50
							l25-43.3L495.6,946.7L495.6,946.7z"/>
					</g>
					<g>
						<path class="st1" d="M534,924c5,0,9,4,9,9v114c0,5-4,9-9,9H407c-5,0-9-4-9-9V933c0-5,4-9,9-9H534 M534,923H407
							c-5.5,0-10,4.5-10,10v114c0,5.5,4.5,10,10,10H534c5.5,0,10-4.5,10-10V933C544,927.5,539.5,923,534,923L534,923z"/>
					</g>
					<circle class="st2" cx="470.6" cy="990" r="33"/>
					<g>
						<path class="st1" d="M470.6,933c31.4,0,57,25.6,57,57s-25.6,57-57,57s-57-25.6-57-57S439.2,933,470.6,933 M470.6,932
							c-32,0-58,26-58,58s26,58,58,58s58-26,58-58S502.7,932,470.6,932L470.6,932z"/>
					</g>
				</g>
				<circle class="st2" cx="470.5" cy="865" r="23"/>
			</g>
			<g>
				<g>
					<g>
						<path class="st1" d="M763.3,947.7l24.4,42.3l-24.4,42.3h-48.8L690,990l24.4-42.3H763.3 M763.9,946.7h-50l-25,43.3l25,43.3h50
							l25-43.3L763.9,946.7L763.9,946.7z"/>
					</g>
					<g>
						<path class="st1" d="M802.2,924c5,0,9,4,9,9v114c0,5-4,9-9,9H675.3c-5,0-9-4-9-9V933c0-5,4-9,9-9H802.2 M802.2,923H675.3
							c-5.5,0-10,4.5-10,10v114c0,5.5,4.5,10,10,10h126.9c5.5,0,10-4.5,10-10V933C812.2,927.5,807.7,923,802.2,923L802.2,923z"/>
					</g>
					<circle class="st2" cx="738.9" cy="990" r="33"/>
					<g>
						<path class="st1" d="M738.9,933c31.4,0,57,25.6,57,57s-25.6,57-57,57s-57-25.6-57-57S707.4,933,738.9,933 M738.9,932
							c-32,0-58,26-58,58s26,58,58,58c32,0,58-26,58-58S770.9,932,738.9,932L738.9,932z"/>
					</g>
				</g>
				<circle class="st2" cx="738.8" cy="865" r="23"/>
			</g>
			<g>
				<g>
					<g>
						<path class="st1" d="M1031.5,947.7L1056,990l-24.4,42.3h-48.8L958.3,990l24.4-42.3H1031.5 M1032.1,946.7h-50l-25,43.3l25,43.3
							h50l25-43.3L1032.1,946.7L1032.1,946.7z"/>
					</g>
					<g>
						<path class="st1" d="M1070.5,924c5,0,9,4,9,9v114c0,5-4,9-9,9H943.5c-5,0-9-4-9-9V933c0-5,4-9,9-9H1070.5 M1070.5,923H943.5
							c-5.5,0-10,4.5-10,10v114c0,5.5,4.5,10,10,10h126.9c5.5,0,10-4.5,10-10V933C1080.5,927.5,1076,923,1070.5,923L1070.5,923z"/>
					</g>
					<circle class="st2" cx="1007.1" cy="990" r="33"/>
					<g>
						<path class="st1" d="M1007.1,933c31.4,0,57,25.6,57,57s-25.6,57-57,57s-57-25.6-57-57S975.7,933,1007.1,933 M1007.1,932
							c-32,0-58,26-58,58s26,58,58,58s58-26,58-58S1039.2,932,1007.1,932L1007.1,932z"/>
					</g>
				</g>
				<circle class="st2" cx="1007" cy="865" r="23"/>
			</g>
			<g>
				<g>
					<g>
						<path class="st1" d="M1299.8,947.7l24.4,42.3l-24.4,42.3H1251l-24.4-42.3l24.4-42.3H1299.8 M1300.4,946.7h-50l-25,43.3
							l25,43.3h50l25-43.3L1300.4,946.7L1300.4,946.7z"/>
					</g>
					<g>
						<path class="st1" d="M1338.7,924c5,0,9,4,9,9v114c0,5-4,9-9,9h-126.9c-5,0-9-4-9-9V933c0-5,4-9,9-9H1338.7 M1338.7,923h-126.9
							c-5.5,0-10,4.5-10,10v114c0,5.5,4.5,10,10,10h126.9c5.5,0,10-4.5,10-10V933C1348.7,927.5,1344.2,923,1338.7,923L1338.7,923z"
							/>
					</g>
					<circle class="st2" cx="1275.4" cy="990" r="33"/>
					<g>
						<path class="st1" d="M1275.4,933c31.4,0,57,25.6,57,57s-25.6,57-57,57s-57-25.6-57-57S1243.9,933,1275.4,933 M1275.4,932
							c-32,0-58,26-58,58s26,58,58,58s58-26,58-58S1307.4,932,1275.4,932L1275.4,932z"/>
					</g>
				</g>
				<circle class="st2" cx="1275.2" cy="865" r="23"/>
			</g>
			<g>
				<g id="_x33_pdt_2_">
					<g>
						<path class="st1" d="M1568,947.7l24.4,42.3l-24.4,42.3h-48.8l-24.4-42.3l24.4-42.3H1568 M1568.6,946.7h-50l-25,43.3l25,43.3
							h50l25-43.3L1568.6,946.7L1568.6,946.7z"/>
					</g>
					<g>
						<path class="st1" d="M1607,924c5,0,9,4,9,9v114c0,5-4,9-9,9H1480c-5,0-9-4-9-9V933c0-5,4-9,9-9H1607 M1607,923H1480
							c-5.5,0-10,4.5-10,10v114c0,5.5,4.5,10,10,10H1607c5.5,0,10-4.5,10-10V933C1617,927.5,1612.5,923,1607,923L1607,923z"/>
					</g>
					<circle class="st2" cx="1543.6" cy="990" r="33"/>
					<g>
						<path class="st1" d="M1543.6,933c31.4,0,57,25.6,57,57s-25.6,57-57,57s-57-25.6-57-57S1512.2,933,1543.6,933 M1543.6,932
							c-32,0-58,26-58,58s26,58,58,58s58-26,58-58S1575.7,932,1543.6,932L1543.6,932z"/>
					</g>
				</g>
				<circle class="st2" cx="1543.5" cy="865" r="23"/>
			</g>
		</g>
		<g>
			<g>
				<g id="_x33_pdt_7_">
					<g>
						<path class="st1" d="M495,537.7l24.4,42.3L495,622.3h-48.8L421.8,580l24.4-42.3H495 M495.6,536.7h-50l-25,43.3l25,43.3h50
							l25-43.3L495.6,536.7L495.6,536.7z"/>
					</g>
					<g>
						<path class="st1" d="M534,514c5,0,9,4,9,9v114c0,5-4,9-9,9H407c-5,0-9-4-9-9V523c0-5,4-9,9-9H534 M534,513H407
							c-5.5,0-10,4.5-10,10v114c0,5.5,4.5,10,10,10H534c5.5,0,10-4.5,10-10V523C544,517.5,539.5,513,534,513L534,513z"/>
					</g>
					<circle class="st2" cx="470.6" cy="580" r="33"/>
					<g>
						<path class="st1" d="M470.6,523c31.4,0,57,25.6,57,57s-25.6,57-57,57s-57-25.6-57-57S439.2,523,470.6,523 M470.6,522
							c-32,0-58,26-58,58s26,58,58,58s58-26,58-58S502.7,522,470.6,522L470.6,522z"/>
					</g>
				</g>
				<circle class="st2" cx="470.5" cy="455" r="23"/>
			</g>
			<g>
				<g>
					<g>
						<path class="st1" d="M763.3,537.7l24.4,42.3l-24.4,42.3h-48.8L690,580l24.4-42.3H763.3 M763.9,536.7h-50l-25,43.3l25,43.3h50
							l25-43.3L763.9,536.7L763.9,536.7z"/>
					</g>
					<g>
						<path class="st1" d="M802.2,514c5,0,9,4,9,9v114c0,5-4,9-9,9H675.3c-5,0-9-4-9-9V523c0-5,4-9,9-9H802.2 M802.2,513H675.3
							c-5.5,0-10,4.5-10,10v114c0,5.5,4.5,10,10,10h126.9c5.5,0,10-4.5,10-10V523C812.2,517.5,807.7,513,802.2,513L802.2,513z"/>
					</g>
					<circle class="st2" cx="738.9" cy="580" r="33"/>
					<g>
						<path class="st1" d="M738.9,523c31.4,0,57,25.6,57,57s-25.6,57-57,57s-57-25.6-57-57S707.4,523,738.9,523 M738.9,522
							c-32,0-58,26-58,58s26,58,58,58c32,0,58-26,58-58S770.9,522,738.9,522L738.9,522z"/>
					</g>
				</g>
				<circle class="st2" cx="738.8" cy="455" r="23"/>
			</g>
			<g>
				<g>
					<g>
						<path class="st1" d="M1031.5,537.7L1056,580l-24.4,42.3h-48.8L958.3,580l24.4-42.3H1031.5 M1032.1,536.7h-50l-25,43.3l25,43.3
							h50l25-43.3L1032.1,536.7L1032.1,536.7z"/>
					</g>
					<g>
						<path class="st1" d="M1070.5,514c5,0,9,4,9,9v114c0,5-4,9-9,9H943.5c-5,0-9-4-9-9V523c0-5,4-9,9-9H1070.5 M1070.5,513H943.5
							c-5.5,0-10,4.5-10,10v114c0,5.5,4.5,10,10,10h126.9c5.5,0,10-4.5,10-10V523C1080.5,517.5,1076,513,1070.5,513L1070.5,513z"/>
					</g>
					<circle class="st2" cx="1007.1" cy="580" r="33"/>
					<g>
						<path class="st1" d="M1007.1,523c31.4,0,57,25.6,57,57s-25.6,57-57,57s-57-25.6-57-57S975.7,523,1007.1,523 M1007.1,522
							c-32,0-58,26-58,58s26,58,58,58s58-26,58-58S1039.2,522,1007.1,522L1007.1,522z"/>
					</g>
				</g>
				<circle class="st2" cx="1007" cy="455" r="23"/>
			</g>
			<g>
				<g>
					<g>
						<path class="st1" d="M1299.8,537.7l24.4,42.3l-24.4,42.3H1251l-24.4-42.3l24.4-42.3H1299.8 M1300.4,536.7h-50l-25,43.3
							l25,43.3h50l25-43.3L1300.4,536.7L1300.4,536.7z"/>
					</g>
					<g>
						<path class="st1" d="M1338.7,514c5,0,9,4,9,9v114c0,5-4,9-9,9h-126.9c-5,0-9-4-9-9V523c0-5,4-9,9-9H1338.7 M1338.7,513h-126.9
							c-5.5,0-10,4.5-10,10v114c0,5.5,4.5,10,10,10h126.9c5.5,0,10-4.5,10-10V523C1348.7,517.5,1344.2,513,1338.7,513L1338.7,513z"
							/>
					</g>
					<circle class="st2" cx="1275.4" cy="580" r="33"/>
					<g>
						<path class="st1" d="M1275.4,523c31.4,0,57,25.6,57,57s-25.6,57-57,57s-57-25.6-57-57S1243.9,523,1275.4,523 M1275.4,522
							c-32,0-58,26-58,58s26,58,58,58s58-26,58-58S1307.4,522,1275.4,522L1275.4,522z"/>
					</g>
				</g>
				<circle class="st2" cx="1275.2" cy="455" r="23"/>
			</g>
			<g>
				<g id="_x33_pdt_6_">
					<g>
						<path class="st1" d="M1568,537.7l24.4,42.3l-24.4,42.3h-48.8l-24.4-42.3l24.4-42.3H1568 M1568.6,536.7h-50l-25,43.3l25,43.3
							h50l25-43.3L1568.6,536.7L1568.6,536.7z"/>
					</g>
					<g>
						<path class="st1" d="M1607,514c5,0,9,4,9,9v114c0,5-4,9-9,9H1480c-5,0-9-4-9-9V523c0-5,4-9,9-9H1607 M1607,513H1480
							c-5.5,0-10,4.5-10,10v114c0,5.5,4.5,10,10,10H1607c5.5,0,10-4.5,10-10V523C1617,517.5,1612.5,513,1607,513L1607,513z"/>
					</g>
					<circle class="st2" cx="1543.6" cy="580" r="33"/>
					<g>
						<path class="st1" d="M1543.6,523c31.4,0,57,25.6,57,57s-25.6,57-57,57s-57-25.6-57-57S1512.2,523,1543.6,523 M1543.6,522
							c-32,0-58,26-58,58s26,58,58,58s58-26,58-58S1575.7,522,1543.6,522L1543.6,522z"/>
					</g>
				</g>
				<circle class="st2" cx="1543.5" cy="455" r="23"/>
			</g>
		</g>
	</g>
	<polyline class="st3" points="396.5,581.5 232.5,581.5 0,349 	"/>
	<polyline class="st3" points="1617,581.5 1781,581.5 2013.5,349 	"/>
	<polyline class="st3" points="812,581.5 849,581.5 849,159.5 689.5,0 	"/>
	<polyline class="st3" points="934,581.5 897,581.5 897,159.5 1056.5,0 	"/>
	<polyline class="st3" points="1348,581.5 1394,581.5 1394,6 	"/>
	<line class="st3" x1="1716.1" y1="744.5" x2="1809" y2="744.5"/>
	<polyline class="st3" points="1617,986.5 1781,986.5 2013.5,1219 	"/>
	<polyline class="st3" points="396.5,990.5 232.5,990.5 0,1223 	"/>
	<polyline class="st3" points="741,1056.5 741,1334.5 581.5,1494 	"/>
	<polyline class="st3" points="1007,1056.5 1007,1334.5 1166.5,1494 	"/>
	<polyline class="st3" points="1350.5,981.2 1396.5,981.2 1396.5,1494 	"/>
</g>
</svg>
